<svg width="800" height="500" viewBox="0 0 800 500" xmlns="http://www.w3.org/2000/svg">
  <rect width="800" height="500" fill="#1e1e1e" />
  <text x="400" y="40" font-family="sans-serif" font-size="20" fill="white" text-anchor="middle">Workspace Memory Architecture</text>
  
  <rect x="300" y="80" width="200" height="40" rx="5" fill="#333" stroke="#666" />
  <text x="400" y="105" font-family="sans-serif" font-size="16" fill="white" text-anchor="middle">SOUL.md</text>
  
  <rect x="300" y="130" width="200" height="40" rx="5" fill="#333" stroke="#666" />
  <text x="400" y="155" font-family="sans-serif" font-size="16" fill="white" text-anchor="middle">MEMORY.md</text>
  
  <rect x="300" y="180" width="200" height="40" rx="5" fill="#333" stroke="#666" />
  <text x="400" y="205" font-family="sans-serif" font-size="16" fill="white" text-anchor="middle">HEARTBEAT.md</text>
  
  <rect x="300" y="230" width="200" height="40" rx="5" fill="#333" stroke="#666" />
  <text x="400" y="255" font-family="sans-serif" font-size="16" fill="white" text-anchor="middle">AGENTS.md</text>

  <line x1="400" y1="280" x2="400" y2="340" stroke="white" stroke-width="2" marker-end="url(#arrowhead)" />
  <text x="410" y="320" font-family="sans-serif" font-size="14" fill="#00ffff">CAP/3.1 Protocol</text>

  <rect x="250" y="360" width="140" height="60" rx="5" fill="#444" stroke="#888" />
  <text x="320" y="395" font-family="sans-serif" font-size="16" fill="white" text-anchor="middle">DISPATCH →</text>

  <rect x="410" y="360" width="140" height="60" rx="5" fill="#444" stroke="#888" />
  <text x="480" y="395" font-family="sans-serif" font-size="16" fill="white" text-anchor="middle">← REPORT</text>

  <defs>
    <marker id="arrowhead" markerWidth="10" markerHeight="7" refX="0" refY="3.5" orient="auto">
      <polygon points="0 0, 10 3.5, 0 7" fill="white" />
    </marker>
  </defs>
</svg>