<svg width="800" height="500" viewBox="0 0 800 500" xmlns="http://www.w3.org/2000/svg">
  <rect width="800" height="500" fill="#121212" />
  <text x="400" y="50" font-family="sans-serif" font-size="24" fill="white" text-anchor="middle">Featured Projects</text>
  
  <rect x="50" y="100" width="220" height="280" rx="10" fill="#1f1f1f" stroke="#333" stroke-width="1" />
  <rect x="60" y="110" width="200" height="120" rx="5" fill="#007bff" />
  <text x="160" y="270" font-family="sans-serif" font-size="18" fill="white" text-anchor="middle">Elsa OpenClaw</text>
  <rect x="110" y="320" width="100" height="25" rx="12" fill="#00d1ff" fill-opacity="0.2" />
  <text x="160" y="338" font-family="sans-serif" font-size="12" fill="#00d1ff" text-anchor="middle">Active</text>

  <rect x="290" y="100" width="220" height="280" rx="10" fill="#1f1f1f" stroke="#333" stroke-width="1" />
  <rect x="300" y="110" width="200" height="120" rx="5" fill="#ffc107" />
  <text x="400" y="270" font-family="sans-serif" font-size="18" fill="white" text-anchor="middle">Axon AI Model™</text>
  <rect x="350" y="320" width="100" height="25" rx="12" fill="#ffc107" fill-opacity="0.2" />
  <text x="400" y="338" font-family="sans-serif" font-size="12" fill="#ffc107" text-anchor="middle">Model</text>

  <rect x="530" y="100" width="220" height="280" rx="10" fill="#1f1f1f" stroke="#333" stroke-width="1" />
  <rect x="540" y="110" width="200" height="120" rx="5" fill="#6f42c1" />
  <text x="640" y="270" font-family="sans-serif" font-size="18" fill="white" text-anchor="middle">DevDay 2026</text>
  <rect x="590" y="320" width="100" height="25" rx="12" fill="#6f42c1" fill-opacity="0.2" />
  <text x="640" y="338" font-family="sans-serif" font-size="12" fill="#6f42c1" text-anchor="middle">Event</text>
</svg>